<svg width="115" height="34" viewBox="0 0 115 34" fill="none" xmlns="http://www.w3.org/2000/svg">
<path d="M39.5282 18.0527L37.9068 12.1179C37.6725 11.3123 37.5234 10.7667 37.4607 10.4801C37.3974 10.1938 37.3391 9.88956 37.285 9.5669H37.2309C37.1586 9.96103 37.0729 10.3906 36.9743 10.8558C36.8749 11.3218 36.7715 11.7421 36.6632 12.1179L35.0148 18.0527H39.5282ZM34.5012 19.9325L33.1227 25.0885C33.0686 25.2495 33.01 25.3435 32.947 25.3704C32.8836 25.3973 32.7801 25.4105 32.6363 25.4105H30.8792C30.735 25.4105 30.6449 25.3884 30.6089 25.3435C30.5726 25.2989 30.5818 25.2138 30.636 25.0885L36.123 7.31136C36.1405 7.22218 36.1768 7.15037 36.2309 7.0966C36.285 7.04282 36.3837 7.01593 36.5283 7.01593H38.1229C38.2487 7.01593 38.3391 7.04282 38.3932 7.0966C38.4474 7.15037 38.4922 7.22218 38.5285 7.31136L44.0423 25.0885C44.0601 25.1784 44.0646 25.2455 44.0556 25.2897C44.0464 25.3346 44.0241 25.3659 43.9882 25.3836C43.97 25.4017 43.9474 25.4105 43.9207 25.4105C43.8936 25.4105 43.8258 25.4105 43.7179 25.4105H41.9337C41.8077 25.4105 41.7176 25.3884 41.6634 25.3435C41.6097 25.2989 41.5734 25.2223 41.5555 25.1151L40.042 19.9325H34.5012Z" fill="#1D5EB3"/>
<path d="M48.5284 8.89572V25.0885C48.5284 25.2138 48.5013 25.2989 48.4475 25.3435C48.3934 25.3884 48.3122 25.4105 48.2043 25.4105H46.6367C46.5102 25.4105 46.4201 25.3884 46.366 25.3435C46.3122 25.2989 46.2941 25.2138 46.3122 25.0885V7.33825C46.3122 7.23069 46.3345 7.15479 46.3797 7.11021C46.4246 7.06562 46.5102 7.03397 46.6367 7.01593H57.0968C57.2044 7.01593 57.2811 7.04282 57.3264 7.0966C57.3709 7.15037 57.4024 7.23069 57.4209 7.33825V25.0885C57.4209 25.2138 57.3938 25.2989 57.3397 25.3435C57.2856 25.3884 57.2044 25.4105 57.0968 25.4105H55.5292C55.4025 25.4105 55.3127 25.3884 55.2586 25.3435C55.2044 25.2989 55.1866 25.2138 55.2044 25.0885V8.89572H48.5284Z" fill="#1D5EB3"/>
<path d="M63.7185 15.7702H65.4755C66.7729 15.7883 67.7324 15.4973 68.3539 14.8972C68.9753 14.2979 69.2867 13.3445 69.2867 12.0376C69.2867 10.9457 69.0431 10.1537 68.5567 9.66118C68.0702 9.16868 67.1507 8.91376 65.8 8.89572H63.7185V15.7702ZM63.7185 17.6497V25.0885C63.7185 25.2138 63.6917 25.2989 63.6373 25.3435C63.5831 25.3884 63.5023 25.4105 63.3941 25.4105H61.8261C61.7004 25.4105 61.6099 25.3884 61.5558 25.3435C61.5023 25.2989 61.4835 25.2138 61.5024 25.0885V7.33825C61.4835 7.23069 61.5023 7.15479 61.5558 7.11021C61.6099 7.06562 61.7004 7.03397 61.8261 7.01593H66.0161C67.9256 7.01593 69.3175 7.39645 70.1918 8.15715C71.0657 8.91818 71.5025 10.167 71.5025 11.9035C71.4846 13.6757 70.9848 15.0766 70.0027 16.1058C69.0202 17.1358 67.5745 17.6497 65.6646 17.6497H63.7185Z" fill="#1D5EB3"/>
<path d="M83.2325 23.853V25.0885C83.2325 25.2138 83.2058 25.2989 83.1513 25.3435C83.0972 25.3884 83.0164 25.4105 82.9081 25.4105H74.5291C74.403 25.4105 74.3132 25.3884 74.2591 25.3435C74.205 25.2989 74.1868 25.2138 74.205 25.0885V7.33825C74.205 7.23069 74.2276 7.15479 74.2725 7.11021C74.3174 7.06562 74.403 7.03397 74.5291 7.01593H83.0164C83.1065 7.01593 83.1784 7.04282 83.2325 7.0966C83.2867 7.15037 83.3045 7.213 83.2867 7.28447L82.8269 8.65407C82.791 8.76128 82.7461 8.83309 82.6923 8.86883C82.6378 8.90491 82.5655 8.91376 82.4758 8.89572H76.4215V14.8571H81.7461C81.854 14.8751 81.9304 14.9068 81.976 14.9514C82.0205 14.9963 82.052 15.0718 82.0702 15.1794V16.4146C82.0702 16.5401 82.0435 16.6256 81.9893 16.6698C81.9352 16.7144 81.854 16.7369 81.7461 16.7369H76.4215V23.5311H82.9081C83.0164 23.5311 83.0924 23.5576 83.138 23.6114C83.1825 23.6652 83.2144 23.7458 83.2325 23.853Z" fill="#1D5EB3"/>
<path d="M90.9354 8.8956L90.8812 12.7624C90.8446 14.6248 90.7685 16.2626 90.6514 17.6765C90.5339 19.091 90.3766 20.2458 90.1783 21.1406C89.8898 22.4476 89.5068 23.4231 89.03 24.0677C88.5521 24.712 87.9351 25.1783 87.1784 25.4642C86.9081 25.5534 86.633 25.6296 86.3538 25.6922C86.0746 25.7548 85.8176 25.7865 85.5837 25.7865C85.4391 25.7865 85.3356 25.7637 85.2729 25.7191C85.2092 25.6745 85.1688 25.6163 85.151 25.5449L84.8269 24.1484C84.7728 23.9874 84.7728 23.8621 84.8269 23.7726C84.8807 23.6831 84.9708 23.6293 85.0972 23.6113L85.3942 23.5844C86.1873 23.5133 86.7906 23.2447 87.2051 22.7788C87.6196 22.3135 87.9351 21.6508 88.1513 20.7918C88.3493 19.9324 88.5117 18.6615 88.6377 16.9784C88.7638 15.2957 88.8357 13.3175 88.8542 11.0439L88.881 7.33813C88.881 7.23058 88.9032 7.15468 88.9484 7.11009C88.9933 7.0655 89.0793 7.03385 89.2054 7.01581H97.5841C97.6923 7.01581 97.7687 7.0427 97.814 7.09648C97.8588 7.15026 97.8907 7.23058 97.9085 7.33813V25.0884C97.8907 25.2137 97.8588 25.2988 97.814 25.3434C97.7687 25.3883 97.6923 25.4104 97.5841 25.4104H96.0165C95.8904 25.4104 95.8003 25.3883 95.7465 25.3434C95.6924 25.2988 95.6742 25.2137 95.6924 25.0884V8.8956H90.9354Z" fill="#1D5EB3"/>
<path d="M105.26 23.5311H107.882C108.981 23.5488 109.842 23.2581 110.463 22.6581C111.085 22.0587 111.396 21.2306 111.396 20.1741C111.377 19.0285 111.04 18.1599 110.382 17.5694C109.724 16.9785 108.846 16.6742 107.747 16.6562H105.26V23.5311ZM105.26 14.7767H107.909C108.666 14.7767 109.377 14.8666 110.044 15.045C110.711 15.2243 111.305 15.4929 111.828 15.8506C112.477 16.3339 112.968 16.9343 113.301 17.6497C113.634 18.3662 113.81 19.1898 113.828 20.1204C113.81 20.8722 113.693 21.5618 113.477 22.188C113.261 22.815 112.963 23.3429 112.585 23.7727C112.098 24.3098 111.485 24.7169 110.747 24.9943C110.008 25.272 109.053 25.4105 107.882 25.4105H103.368C103.242 25.4105 103.152 25.3884 103.098 25.3435C103.044 25.2989 103.026 25.2138 103.044 25.0885V7.33825C103.026 7.23069 103.044 7.15479 103.098 7.11021C103.152 7.06562 103.242 7.03397 103.368 7.01593H104.936C105.044 7.01593 105.12 7.04282 105.166 7.0966C105.21 7.15037 105.242 7.23069 105.26 7.33825V14.7767Z" fill="#1D5EB3"/>
<path d="M30.3774 32.4643V30.026C30.3774 30.0083 30.3801 29.994 30.3856 29.9831C30.3911 29.9722 30.4007 29.9654 30.4151 29.9617L30.5336 29.9351L30.7059 29.8923C30.7093 29.8923 30.7155 29.8912 30.7248 29.8895C30.7337 29.8878 30.7415 29.8868 30.7491 29.8868C30.7597 29.8868 30.7676 29.8912 30.7731 29.9004C30.7782 29.9093 30.783 29.9208 30.7864 29.9351V31.384L30.7703 31.9082H30.7864C30.8584 31.7656 30.9132 31.6587 30.9505 31.5876C30.9882 31.5161 31.0197 31.4593 31.0447 31.4164L31.8683 29.9886C31.8717 29.9814 31.8765 29.976 31.8816 29.9722C31.8871 29.9692 31.8933 29.9654 31.9005 29.9617L32.1913 29.8923C32.1985 29.8923 32.2057 29.8923 32.2126 29.8923C32.2197 29.8923 32.2269 29.8905 32.2341 29.8868C32.2451 29.8868 32.253 29.8912 32.2585 29.9004C32.2639 29.9093 32.2684 29.9208 32.2718 29.9351V32.4643C32.2718 32.4892 32.2667 32.5062 32.2557 32.515C32.2451 32.5242 32.229 32.5283 32.2074 32.5283H31.9275C31.9022 32.5283 31.8844 32.5242 31.8737 32.515C31.8631 32.5062 31.8594 32.4892 31.8631 32.4643V31.1063L31.8789 30.5873H31.8631C31.809 30.6873 31.7597 30.7806 31.7148 30.8681C31.6699 30.9555 31.6333 31.0239 31.6045 31.074L30.7813 32.5018C30.7737 32.5123 30.7669 32.5195 30.7597 32.5232C30.7525 32.5266 30.7398 32.5283 30.722 32.5283H30.4421C30.4168 32.5283 30.4 32.5242 30.3911 32.515C30.3818 32.5062 30.3774 32.4892 30.3774 32.4643Z" fill="white" fill-opacity="0.5"/>
<path d="M33.5743 31.3735V32.4643C33.5743 32.4892 33.5688 32.5062 33.5582 32.515C33.5472 32.5242 33.5311 32.5283 33.5099 32.5283H33.23C33.2046 32.5283 33.1875 32.5242 33.1786 32.515C33.1697 32.5062 33.1652 32.4892 33.1652 32.464V30.0209C33.1652 30.0029 33.168 29.9886 33.1734 29.978C33.1786 29.9675 33.1885 29.96 33.2029 29.9569L33.3214 29.9297L33.4934 29.8868C33.4972 29.8868 33.5033 29.8861 33.5123 29.8844C33.5212 29.8827 33.5294 29.8817 33.5366 29.8817C33.5472 29.8817 33.5554 29.8861 33.5609 29.895C33.566 29.9038 33.5705 29.9154 33.5743 29.9297V31.042H34.6129V30.0212C34.6129 30.0032 34.6157 29.9889 34.6212 29.9784C34.6263 29.9675 34.6362 29.9603 34.6506 29.9569L34.9411 29.8868C34.9483 29.8868 34.9555 29.8861 34.9627 29.8844C34.9699 29.8827 34.9771 29.8817 34.9843 29.8817C34.9953 29.8817 35.0031 29.8861 35.0086 29.895C35.0138 29.9038 35.0182 29.9154 35.022 29.9297V32.464C35.0182 32.4892 35.012 32.5062 35.0031 32.515C34.9942 32.5242 34.9788 32.5283 34.9576 32.5283H34.6777C34.6523 32.5283 34.6345 32.5242 34.6239 32.515C34.6129 32.5062 34.6095 32.4892 34.6129 32.4643V31.3735H33.5743Z" fill="white" fill-opacity="0.5"/>
<path d="M37.4656 30.4538V32.0794C37.53 32.1399 37.592 32.1828 37.6509 32.2077C37.7102 32.2325 37.765 32.2448 37.8153 32.2448C37.9983 32.2485 38.1308 32.1753 38.2134 32.0259C38.296 31.8758 38.3371 31.6069 38.3371 31.2186C38.3371 30.8582 38.296 30.6063 38.2134 30.4616C38.1308 30.3173 38.0034 30.2452 37.8314 30.2452C37.7667 30.2452 37.7013 30.2659 37.6348 30.3068C37.5683 30.3476 37.5118 30.397 37.4656 30.4538ZM37.0565 32.0794V30.4538C37.0062 30.397 36.9476 30.3476 36.8815 30.3068C36.815 30.2659 36.7513 30.2452 36.6903 30.2452C36.5146 30.2489 36.3854 30.3217 36.3029 30.4644C36.2203 30.607 36.1809 30.8582 36.1843 31.2186C36.1843 31.6069 36.2248 31.8751 36.3056 32.0232C36.3865 32.1709 36.5201 32.2448 36.7064 32.2448C36.753 32.2448 36.8061 32.2325 36.8654 32.2077C36.9243 32.1828 36.988 32.1399 37.0565 32.0794ZM37.4008 33.6511H37.1209C37.0956 33.6477 37.0788 33.6416 37.0699 33.6324C37.0606 33.6236 37.0565 33.6086 37.0565 33.5871V32.4377C36.999 32.4946 36.937 32.5365 36.8705 32.5633C36.8041 32.5899 36.7335 32.6032 36.6581 32.6032C36.3638 32.6032 36.1378 32.4837 35.9802 32.2448C35.8219 32.0062 35.7431 31.6675 35.7431 31.2291C35.7431 30.787 35.8202 30.4531 35.9743 30.2264C36.1288 30.0001 36.3334 29.8868 36.5879 29.8868C36.6636 29.8905 36.7386 29.9082 36.8143 29.9406C36.8894 29.9722 36.9702 30.0243 37.0565 30.0954V28.9191C37.0565 28.9048 37.06 28.8916 37.0672 28.879C37.0743 28.8664 37.085 28.8586 37.0994 28.8548L37.3577 28.7908C37.4008 28.7803 37.4286 28.7792 37.4412 28.7881C37.4536 28.7969 37.4618 28.814 37.4656 28.8388V30.0954C37.5478 30.0243 37.6269 29.9722 37.7019 29.9406C37.7777 29.9082 37.8547 29.8905 37.9335 29.8868C38.1846 29.8868 38.3885 30.0001 38.5443 30.2264C38.7006 30.4531 38.7787 30.787 38.7787 31.2291C38.7787 31.6675 38.6988 32.0062 38.5392 32.2448C38.3792 32.4837 38.1541 32.6032 37.8636 32.6032C37.7848 32.6032 37.7119 32.5899 37.6458 32.5633C37.5793 32.5365 37.5194 32.4946 37.4656 32.4377V33.5871C37.4618 33.6086 37.4553 33.6236 37.4464 33.6324C37.4375 33.6416 37.4224 33.6477 37.4008 33.6511Z" fill="white" fill-opacity="0.5"/>
<path d="M40.3987 30.2184C40.1794 30.2184 40.0198 30.3086 39.9194 30.4886C39.819 30.6683 39.7687 30.9209 39.7687 31.2453C39.7687 31.5734 39.819 31.8262 39.9194 32.0042C40.0198 32.1829 40.1794 32.2718 40.3987 32.2718C40.6138 32.2718 40.7724 32.1829 40.8749 32.0042C40.9769 31.8262 41.028 31.5734 41.028 31.2453C41.0246 30.9209 40.9725 30.6683 40.8721 30.4886C40.7714 30.3086 40.6138 30.2184 40.3987 30.2184ZM40.3987 29.8869C40.7142 29.8869 40.9708 30.0036 41.1681 30.2375C41.3654 30.4706 41.4658 30.8069 41.4692 31.2453C41.4692 31.6874 41.3699 32.0233 41.1708 32.2534C40.9715 32.4828 40.7142 32.5995 40.3987 32.6033C40.0791 32.6033 39.8208 32.4876 39.6234 32.2558C39.4261 32.0243 39.3275 31.6874 39.3275 31.2453C39.3275 30.8069 39.4261 30.4716 39.6234 30.2402C39.8208 30.0084 40.0791 29.8906 40.3987 29.8869Z" fill="white" fill-opacity="0.5"/>
<path d="M42.6374 30.5073V32.0685C42.7269 32.1219 42.8231 32.1648 42.9252 32.1971C43.0276 32.2288 43.1198 32.2448 43.2024 32.2448C43.3925 32.2448 43.5316 32.1754 43.6196 32.0365C43.7073 31.8976 43.7515 31.6247 43.7515 31.2186C43.7477 30.8476 43.7032 30.5927 43.6169 30.4538C43.5309 30.3146 43.398 30.2452 43.2185 30.2452C43.1397 30.2489 43.0509 30.2717 42.9523 30.3146C42.8536 30.3575 42.7484 30.4218 42.6374 30.5073ZM42.2284 33.5923V30.6567C42.2246 30.5427 42.213 30.4494 42.1935 30.3762C42.1736 30.303 42.1438 30.2309 42.1044 30.1594C42.0794 30.1203 42.0667 30.0992 42.0667 30.0954C42.0667 30.092 42.0667 30.0883 42.0667 30.0849C42.0667 30.0815 42.0677 30.0767 42.0695 30.0713C42.0712 30.0662 42.0794 30.058 42.0938 30.0471L42.3254 29.9028C42.3432 29.8922 42.3593 29.8878 42.3737 29.8895C42.388 29.8912 42.4024 29.8997 42.4168 29.9137C42.4453 29.9494 42.4734 29.993 42.5001 30.0444C42.5268 30.0965 42.5477 30.1489 42.5621 30.2023L42.6049 30.1706C42.7378 30.074 42.8608 30.0029 42.9739 29.9566C43.0869 29.9103 43.1989 29.8868 43.3103 29.8868C43.5864 29.8905 43.8025 30.0073 43.9588 30.2374C44.1146 30.4671 44.1927 30.7976 44.1927 31.2292C44.189 31.6713 44.1047 32.0106 43.9396 32.2475C43.7745 32.4847 43.536 32.6032 43.2239 32.6032C43.1164 32.6032 43.0122 32.5872 42.9118 32.5549C42.8111 32.5232 42.7197 32.4786 42.6374 32.4214V33.5123C42.6337 33.5266 42.6282 33.5398 42.621 33.5524C42.6138 33.5647 42.6049 33.5729 42.5943 33.5763L42.336 33.6406C42.2894 33.6511 42.2589 33.6522 42.2445 33.6433C42.2301 33.6341 42.2246 33.6171 42.2284 33.5923Z" fill="white" fill-opacity="0.5"/>
<path d="M45.4681 30.01L45.8878 31.1808C45.9022 31.2237 45.9166 31.2755 45.9309 31.336C45.9453 31.3966 45.9614 31.4661 45.9796 31.5447H45.9954C46.0063 31.4909 46.0217 31.4269 46.0413 31.352C46.0608 31.2772 46.0779 31.22 46.0923 31.1808L46.5068 30.01C46.5102 29.992 46.5157 29.9804 46.5229 29.975C46.5301 29.9699 46.5407 29.9654 46.5551 29.9617H46.9374C46.9515 29.9617 46.9618 29.9665 46.9669 29.975C46.9724 29.9842 46.9768 29.9957 46.9803 30.01L47.1204 32.4854C47.1204 32.4997 47.1166 32.5106 47.1094 32.5178C47.1022 32.5246 47.0916 32.5283 47.0772 32.5283H46.7706C46.7524 32.5283 46.7408 32.5256 46.7357 32.5205C46.7302 32.515 46.7274 32.5035 46.7274 32.4854L46.6682 30.6302C46.6647 30.6302 46.6637 30.6312 46.6654 30.6329C46.6675 30.6349 46.6682 30.5675 46.6682 30.4324H46.6575C46.6466 30.4824 46.6387 30.5226 46.6332 30.5529C46.6281 30.5828 46.6216 30.609 46.6144 30.6302L46.1625 31.9293C46.1516 31.9545 46.1437 31.9708 46.1382 31.9776C46.1327 31.9851 46.1194 31.9865 46.0978 31.9831H45.8772C45.8518 31.9831 45.8367 31.9803 45.8313 31.9749C45.8261 31.9698 45.8196 31.9545 45.8124 31.9293L45.366 30.6302C45.3588 30.6159 45.3517 30.5947 45.3445 30.5662C45.3373 30.5376 45.3284 30.493 45.3174 30.4324H45.3068C45.303 30.5675 45.303 30.6339 45.3068 30.6302L45.2475 32.4854C45.2437 32.5035 45.2393 32.515 45.2341 32.5205C45.2287 32.5256 45.2187 32.5283 45.2043 32.5283H44.8977C44.8796 32.5283 44.8669 32.5246 44.8597 32.5178C44.8525 32.5106 44.8511 32.4997 44.8546 32.4854L44.9947 30.01C44.9947 29.9957 44.9981 29.9842 45.0053 29.975C45.0125 29.9665 45.0248 29.9617 45.043 29.9617H45.4198C45.4304 29.9617 45.4394 29.9665 45.4465 29.975C45.4537 29.9842 45.4609 29.9957 45.4681 30.01Z" fill="white" fill-opacity="0.5"/>
<path d="M49.1816 31.9403V31.2504H49.1007C48.8137 31.2541 48.5879 31.3051 48.4228 31.4032C48.2577 31.5012 48.1772 31.6445 48.1806 31.8334C48.1806 31.9688 48.2166 32.0757 48.2882 32.1543C48.3601 32.2326 48.4533 32.2718 48.568 32.2718C48.6544 32.2718 48.7499 32.2442 48.8561 32.1887C48.962 32.1336 49.0596 32.0614 49.1494 31.9722L49.1816 31.9403ZM49.1816 30.9192V30.7265C49.1778 30.5519 49.1388 30.4277 49.0631 30.3549C48.988 30.282 48.8767 30.2453 48.7294 30.2453C48.6362 30.2453 48.5348 30.2585 48.4255 30.2851C48.3159 30.3123 48.2183 30.345 48.1323 30.3841C48.0963 30.4022 48.0747 30.4117 48.0675 30.4134C48.0603 30.4155 48.0549 30.4165 48.0514 30.4165C48.0408 30.4199 48.0309 30.4192 48.0216 30.4134C48.0131 30.4083 48.0083 30.4001 48.0083 30.3896L47.9278 30.1758C47.9168 30.151 47.9185 30.1285 47.9329 30.1088C47.9473 30.0894 47.9833 30.0673 48.0408 30.0421C48.159 29.9958 48.2803 29.9584 48.4039 29.9298C48.5276 29.9012 48.6523 29.8869 48.778 29.8869C49.0435 29.8869 49.2453 29.9502 49.3834 30.0768C49.5214 30.2034 49.5906 30.3841 49.5906 30.6197V31.8334C49.5906 31.8977 49.5961 31.9671 49.6067 32.042C49.6177 32.1166 49.6338 32.1754 49.6554 32.2183C49.6626 32.2398 49.6732 32.2667 49.6876 32.2983C49.7019 32.3306 49.7163 32.3541 49.7307 32.3681C49.7413 32.3858 49.7485 32.4001 49.752 32.411C49.752 32.4181 49.7492 32.4242 49.7441 32.4293C49.7386 32.4348 49.7307 32.4409 49.7198 32.4484L49.4937 32.5873C49.4649 32.6016 49.4409 32.6016 49.421 32.5873C49.4015 32.573 49.3789 32.5444 49.3539 32.5018C49.3285 32.4627 49.3107 32.4304 49.3001 32.4055C49.2892 32.3807 49.273 32.3323 49.2515 32.2612L49.2463 32.2449L49.2247 32.2667C49.0918 32.3984 48.9682 32.4875 48.8534 32.5338C48.7386 32.5801 48.6201 32.6033 48.4981 32.6033C48.2758 32.5995 48.098 32.5321 47.9651 32.4001C47.8325 32.2684 47.7681 32.0849 47.7716 31.8494C47.7716 31.6247 47.838 31.4403 47.9709 31.296C48.1035 31.1517 48.2902 31.0509 48.5304 30.9937C48.6129 30.976 48.7109 30.959 48.8236 30.943C48.9366 30.927 49.0274 30.9192 49.0956 30.9192H49.1816Z" fill="white" fill-opacity="0.5"/>
<path d="M50.8664 32.1972H51.8513V30.0209C51.8513 30.0029 51.8537 29.9886 51.8592 29.9781C51.8647 29.9675 51.8746 29.96 51.889 29.957L52.1795 29.8868C52.1867 29.8868 52.1939 29.8868 52.2011 29.8868C52.2083 29.8868 52.2155 29.8855 52.2227 29.8817C52.2333 29.8817 52.2412 29.8862 52.2466 29.895C52.2521 29.9039 52.2566 29.9154 52.2603 29.9297V32.1972H52.5241C52.5454 32.2003 52.5625 32.205 52.5748 32.2105C52.5875 32.2156 52.5957 32.2343 52.5992 32.2666V33.2503C52.5992 33.2717 52.594 33.2877 52.583 33.2986C52.5724 33.3091 52.5563 33.3146 52.5347 33.3146H52.2549C52.2295 33.3108 52.2117 33.3047 52.2011 33.2959C52.1901 33.287 52.1867 33.2717 52.1901 33.2503V32.5284H50.5218C50.4968 32.5284 50.4796 32.5243 50.4707 32.5151C50.4618 32.5062 50.457 32.4892 50.457 32.464V30.0209C50.457 30.0029 50.4601 29.9886 50.4653 29.9781C50.4707 29.9675 50.4807 29.96 50.4951 29.957L50.7856 29.8868C50.7928 29.8868 50.7999 29.8862 50.8071 29.8845C50.8143 29.8828 50.8212 29.8817 50.8287 29.8817C50.8393 29.8855 50.8472 29.8906 50.8527 29.8977C50.8582 29.9049 50.8626 29.9154 50.8664 29.9297V32.1972Z" fill="white" fill-opacity="0.5"/>
<path d="M53.1911 32.4643V30.026C53.1911 30.0083 53.1938 29.994 53.1993 29.9831C53.2045 29.9722 53.2144 29.9654 53.2288 29.9617L53.3473 29.9351L53.5193 29.8923C53.5231 29.8923 53.5292 29.8912 53.5381 29.8895C53.547 29.8878 53.5553 29.8868 53.5625 29.8868C53.5734 29.8868 53.5813 29.8912 53.5868 29.9004C53.5919 29.9093 53.5964 29.9208 53.6001 29.9351V31.384L53.584 31.9082H53.6001C53.6721 31.7656 53.7265 31.6587 53.7642 31.5876C53.8019 31.5161 53.8334 31.4593 53.8584 31.4164L54.682 29.9886C54.6854 29.9814 54.6899 29.976 54.6954 29.9722C54.7008 29.9692 54.707 29.9654 54.7142 29.9617L55.0047 29.8923C55.0119 29.8923 55.0191 29.8923 55.0266 29.8923C55.0335 29.8923 55.0407 29.8905 55.0479 29.8868C55.0585 29.8868 55.0667 29.8912 55.0722 29.9004C55.0773 29.9093 55.0821 29.9208 55.0855 29.9351V32.4643C55.0855 32.4892 55.0801 32.5062 55.0694 32.515C55.0585 32.5242 55.0427 32.5283 55.0211 32.5283H54.7413C54.7159 32.5283 54.6981 32.5242 54.6871 32.515C54.6765 32.5062 54.6727 32.4892 54.6765 32.4643V31.1063L54.6926 30.5873H54.6765C54.6227 30.6873 54.5734 30.7806 54.5285 30.8681C54.4836 30.9555 54.447 31.0239 54.4182 31.074L53.595 32.5018C53.5875 32.5123 53.5806 32.5195 53.5734 32.5232C53.5662 32.5266 53.5535 32.5283 53.5357 32.5283H53.2558C53.2305 32.5283 53.2134 32.5242 53.2045 32.515C53.1956 32.5062 53.1911 32.4892 53.1911 32.4643Z" fill="white" fill-opacity="0.5"/>
<path d="M56.8779 30.2184C56.659 30.2184 56.4994 30.3086 56.399 30.4886C56.2986 30.6683 56.2483 30.9209 56.2483 31.2453C56.2483 31.5734 56.2986 31.8262 56.399 32.0042C56.4994 32.1829 56.659 32.2718 56.8779 32.2718C57.0934 32.2718 57.252 32.1829 57.3544 32.0042C57.4562 31.8262 57.5076 31.5734 57.5076 31.2453C57.5038 30.9209 57.4521 30.6683 57.3517 30.4886C57.251 30.3086 57.0934 30.2184 56.8779 30.2184ZM56.8779 29.8869C57.1938 29.8869 57.45 30.0036 57.6474 30.2375C57.8447 30.4706 57.945 30.8069 57.9488 31.2453C57.9488 31.6874 57.8495 32.0233 57.6501 32.2534C57.4511 32.4828 57.1938 32.5995 56.8779 32.6033C56.5583 32.6033 56.3 32.4876 56.103 32.2558C55.9057 32.0243 55.8067 31.6874 55.8067 31.2453C55.8067 30.8069 55.9057 30.4716 56.103 30.2402C56.3 30.0084 56.5583 29.8906 56.8779 29.8869Z" fill="white" fill-opacity="0.5"/>
<path d="M59.0793 31.3735V32.4643C59.0793 32.4892 59.0738 32.5062 59.0628 32.515C59.0522 32.5242 59.0358 32.5283 59.0142 32.5283H58.7347C58.7093 32.5283 58.6925 32.5242 58.6836 32.515C58.6744 32.5062 58.6696 32.4892 58.6696 32.464V30.0209C58.6696 30.0029 58.6726 29.9886 58.6781 29.978C58.6836 29.9675 58.6932 29.96 58.7079 29.9569L58.8265 29.9297L58.9981 29.8868C59.0015 29.8868 59.0084 29.8861 59.0169 29.8844C59.0262 29.8827 59.0341 29.8817 59.0413 29.8817C59.0522 29.8817 59.0601 29.8861 59.0656 29.895C59.0707 29.9038 59.0752 29.9154 59.0793 29.9297V31.042H60.118V30.0212C60.118 30.0032 60.1207 29.9889 60.1259 29.9784C60.1313 29.9675 60.1406 29.9603 60.1553 29.9569L60.4458 29.8868C60.4534 29.8868 60.4606 29.8861 60.4674 29.8844C60.4746 29.8827 60.4821 29.8817 60.4893 29.8817C60.4999 29.8817 60.5082 29.8861 60.5133 29.895C60.5188 29.9038 60.5236 29.9154 60.5267 29.9297V32.464C60.5236 32.4892 60.5167 32.5062 60.5082 32.515C60.4986 32.5242 60.4838 32.5283 60.4619 32.5283H60.1824C60.1574 32.5283 60.1396 32.5242 60.1286 32.515C60.118 32.5062 60.1139 32.4892 60.118 32.4643V31.3735H59.0793Z" fill="white" fill-opacity="0.5"/>
<path d="M61.8291 31.3735V32.4643C61.8291 32.4892 61.824 32.5062 61.813 32.515C61.8021 32.5242 61.786 32.5283 61.7647 32.5283H61.4845C61.4595 32.5283 61.4424 32.5242 61.4335 32.515C61.4246 32.5062 61.4201 32.4892 61.4201 32.464V30.0209C61.4201 30.0029 61.4228 29.9886 61.428 29.978C61.4335 29.9675 61.4434 29.96 61.4578 29.9569L61.5763 29.9297L61.7486 29.8868C61.7521 29.8868 61.7582 29.8861 61.7671 29.8844C61.7764 29.8827 61.7843 29.8817 61.7915 29.8817C61.8021 29.8817 61.8103 29.8861 61.8158 29.895C61.8213 29.9038 61.8254 29.9154 61.8291 29.9297V31.042H62.8678V30.0212C62.8678 30.0032 62.8706 29.9889 62.876 29.9784C62.8812 29.9675 62.8911 29.9603 62.9055 29.9569L63.196 29.8868C63.2032 29.8868 63.2104 29.8861 63.2176 29.8844C63.2248 29.8827 63.232 29.8817 63.2392 29.8817C63.2501 29.8817 63.258 29.8861 63.2635 29.895C63.2686 29.9038 63.2734 29.9154 63.2769 29.9297V32.464C63.2734 32.4892 63.2669 32.5062 63.258 32.515C63.2491 32.5242 63.234 32.5283 63.2121 32.5283H62.9326C62.9076 32.5283 62.8894 32.5242 62.8788 32.515C62.8678 32.5062 62.8644 32.4892 62.8678 32.4643V31.3735H61.8291Z" fill="white" fill-opacity="0.5"/>
<path d="M65.0689 30.2184C64.85 30.2184 64.6904 30.3086 64.59 30.4886C64.4896 30.6683 64.4393 30.9209 64.4393 31.2453C64.4393 31.5734 64.4896 31.8262 64.59 32.0042C64.6904 32.1829 64.85 32.2718 65.0689 32.2718C65.2841 32.2718 65.443 32.1829 65.5454 32.0042C65.6475 31.8262 65.6986 31.5734 65.6986 31.2453C65.6948 30.9209 65.6431 30.6683 65.5427 30.4886C65.442 30.3086 65.2841 30.2184 65.0689 30.2184ZM65.0689 29.8869C65.3844 29.8869 65.641 30.0036 65.8383 30.2375C66.0357 30.4706 66.136 30.8069 66.1398 31.2453C66.1398 31.6874 66.0405 32.0233 65.8411 32.2534C65.642 32.4828 65.3844 32.5995 65.0689 32.6033C64.7496 32.6033 64.4913 32.4876 64.2937 32.2558C64.0963 32.0243 63.9977 31.6874 63.9977 31.2453C63.9977 30.8069 64.0963 30.4716 64.2937 30.2402C64.4913 30.0084 64.7496 29.8906 65.0689 29.8869Z" fill="white" fill-opacity="0.5"/>
<path d="M66.6944 31.3198V31.0475C66.691 31.0257 66.6944 31.0107 66.7054 31.0019C66.716 30.993 66.7338 30.9869 66.7591 30.9831H67.9753C67.9969 30.9831 68.013 30.9886 68.0236 30.9991C68.0342 31.0097 68.0397 31.0257 68.0397 31.0475V31.3198C68.0362 31.3449 68.0301 31.3626 68.0208 31.3735C68.0119 31.3841 67.9969 31.3878 67.9753 31.3841H66.7591C66.7338 31.3841 66.7167 31.3797 66.7078 31.3708C66.6988 31.362 66.6944 31.3449 66.6944 31.3198Z" fill="white" fill-opacity="0.5"/>
<path d="M69.1702 30.2935V32.4643C69.1702 32.4892 69.1647 32.5062 69.1541 32.515C69.1431 32.5242 69.127 32.5283 69.1055 32.5283H68.8256C68.8006 32.5283 68.7834 32.5242 68.7745 32.515C68.7656 32.5062 68.7612 32.4892 68.7612 32.4643V30.026C68.7612 30.0046 68.7656 29.9893 68.7745 29.9804C68.7834 29.9719 68.8006 29.9654 68.8256 29.9617H70.4994C70.521 29.9617 70.5361 29.9671 70.5453 29.9777C70.5542 29.9886 70.5604 30.0046 70.5638 30.026V32.4643C70.5638 32.4892 70.5587 32.5062 70.5477 32.515C70.5371 32.5242 70.521 32.5283 70.4994 32.5283H70.2195C70.1945 32.5283 70.1763 32.5242 70.1657 32.515C70.1551 32.5062 70.1513 32.4892 70.1551 32.4643V30.2935H69.1702Z" fill="white" fill-opacity="0.5"/>
<path d="M71.9036 30.5073V32.0685C71.9934 32.1219 72.0897 32.1648 72.1918 32.1971C72.2942 32.2288 72.3867 32.2448 72.4692 32.2448C72.659 32.2448 72.7981 32.1754 72.8862 32.0365C72.9739 31.8976 73.018 31.6247 73.018 31.2186C73.0146 30.8476 72.9697 30.5927 72.8834 30.4538C72.7974 30.3146 72.6645 30.2452 72.4853 30.2452C72.4062 30.2489 72.3171 30.2717 72.2188 30.3146C72.1198 30.3575 72.0153 30.4218 71.9036 30.5073ZM71.4949 33.5923V30.6567C71.4912 30.5427 71.4795 30.4494 71.4597 30.3762C71.4401 30.303 71.4107 30.2309 71.3713 30.1594C71.3459 30.1203 71.3333 30.0992 71.3333 30.0954C71.3333 30.092 71.3333 30.0883 71.3333 30.0849C71.3333 30.0815 71.3343 30.0767 71.336 30.0713C71.3381 30.0662 71.3459 30.058 71.3603 30.0471L71.5916 29.9028C71.6097 29.8922 71.6258 29.8878 71.6402 29.8895C71.6546 29.8912 71.669 29.8997 71.6834 29.9137C71.7121 29.9494 71.7399 29.993 71.7666 30.0444C71.7937 30.0965 71.8142 30.1489 71.8286 30.2023L71.8718 30.1706C72.0044 30.074 72.1273 30.0029 72.2404 29.9566C72.3534 29.9103 72.4655 29.8868 72.5765 29.8868C72.8529 29.8905 73.0691 30.0073 73.2253 30.2374C73.3812 30.4671 73.4593 30.7976 73.4593 31.2292C73.4559 31.6713 73.3716 32.0106 73.2065 32.2475C73.0413 32.4847 72.8026 32.6032 72.4905 32.6032C72.3829 32.6032 72.2788 32.5872 72.1784 32.5549C72.078 32.5232 71.9865 32.4786 71.9036 32.4214V33.5123C71.9006 33.5266 71.8951 33.5398 71.8875 33.5524C71.8807 33.5647 71.8718 33.5729 71.8608 33.5763L71.6025 33.6406C71.5559 33.6511 71.5254 33.6522 71.511 33.6433C71.4967 33.6341 71.4912 33.6171 71.4949 33.5923Z" fill="white" fill-opacity="0.5"/>
<path d="M75.3752 31.9403V31.2504H75.2947C75.0076 31.2541 74.7815 31.3051 74.6164 31.4032C74.4513 31.5012 74.3708 31.6445 74.3742 31.8334C74.3742 31.9688 74.4102 32.0757 74.4818 32.1543C74.5537 32.2326 74.6469 32.2718 74.7617 32.2718C74.8477 32.2718 74.9436 32.2442 75.0498 32.1887C75.1556 32.1336 75.2533 32.0614 75.3427 31.9722L75.3752 31.9403ZM75.3752 30.9192V30.7265C75.3715 30.5519 75.3321 30.4277 75.2567 30.3549C75.1817 30.282 75.0703 30.2453 74.9234 30.2453C74.8298 30.2453 74.7284 30.2585 74.6192 30.2851C74.5095 30.3123 74.4119 30.345 74.3259 30.3841C74.2899 30.4022 74.2684 30.4117 74.2612 30.4134C74.254 30.4155 74.2485 30.4165 74.2451 30.4165C74.2341 30.4199 74.2245 30.4192 74.2153 30.4134C74.2064 30.4083 74.2019 30.4001 74.2019 30.3896L74.1214 30.1758C74.1104 30.151 74.1125 30.1285 74.1269 30.1088C74.1409 30.0894 74.1769 30.0673 74.2341 30.0421C74.3526 29.9958 74.4736 29.9584 74.5976 29.9298C74.7212 29.9012 74.8459 29.8869 74.9713 29.8869C75.2372 29.8869 75.4389 29.9502 75.577 30.0768C75.7151 30.2034 75.7843 30.3841 75.7843 30.6197V31.8334C75.7843 31.8977 75.7897 31.9671 75.8004 32.042C75.8113 32.1166 75.8271 32.1754 75.849 32.2183C75.8559 32.2398 75.8668 32.2667 75.8812 32.2983C75.8956 32.3306 75.91 32.3541 75.9244 32.3681C75.935 32.3858 75.9418 32.4001 75.9456 32.411C75.9456 32.4181 75.9429 32.4242 75.9377 32.4293C75.9323 32.4348 75.9244 32.4409 75.9134 32.4484L75.6873 32.5873C75.6585 32.6016 75.6346 32.6016 75.6147 32.5873C75.5952 32.573 75.5726 32.5444 75.5475 32.5018C75.5225 32.4627 75.5044 32.4304 75.4938 32.4055C75.4831 32.3807 75.4667 32.3323 75.4451 32.2612L75.44 32.2449L75.4184 32.2667C75.2855 32.3984 75.1618 32.4875 75.047 32.5338C74.9319 32.5801 74.8134 32.6033 74.6918 32.6033C74.4695 32.5995 74.2917 32.5321 74.1587 32.4001C74.0262 32.2684 73.9614 32.0849 73.9652 31.8494C73.9652 31.6247 74.0313 31.4403 74.1642 31.296C74.2971 31.1517 74.4838 31.0509 74.724 30.9937C74.8065 30.976 74.9042 30.959 75.0172 30.943C75.1303 30.927 75.2211 30.9192 75.2892 30.9192H75.3752Z" fill="white" fill-opacity="0.5"/>
<path d="M77.0597 31.3575V32.1972H77.5657C77.7164 32.1972 77.8329 32.1604 77.9154 32.0872C77.9976 32.014 78.0391 31.9119 78.0391 31.7799C78.0391 31.6444 77.9997 31.5409 77.9209 31.4698C77.8418 31.3983 77.7236 31.3612 77.5657 31.3575H77.0597ZM77.0597 30.2935V31.0256H77.5578C77.6804 31.0256 77.7791 30.9913 77.8531 30.9218C77.9267 30.8521 77.9641 30.7585 77.9641 30.6407C77.9641 30.5304 77.9257 30.4457 77.8503 30.3868C77.7743 30.3279 77.6715 30.2969 77.5413 30.2935H77.0597ZM76.7154 29.9617H77.5684C77.8312 29.9654 78.0271 30.0226 78.1569 30.1329C78.2864 30.2432 78.3515 30.4076 78.3515 30.6247C78.3478 30.7605 78.3138 30.8745 78.2505 30.9671C78.1864 31.06 78.1001 31.1274 77.9908 31.1703C78.1381 31.2094 78.2508 31.2843 78.3296 31.3946C78.4087 31.5052 78.4481 31.6373 78.4481 31.7904C78.4447 32.0185 78.3666 32.1985 78.2141 32.3306C78.0617 32.4626 77.8541 32.5283 77.5927 32.5283H76.715C76.69 32.5283 76.6729 32.5242 76.664 32.515C76.6551 32.5062 76.6506 32.4892 76.6506 32.4643V30.026C76.6506 30.0046 76.6551 29.9893 76.664 29.9804C76.6729 29.9719 76.69 29.9654 76.7154 29.9617Z" fill="white" fill-opacity="0.5"/>
<path d="M80.1007 30.2184C79.8818 30.2184 79.7222 30.3086 79.6218 30.4886C79.5214 30.6683 79.4711 30.9209 79.4711 31.2453C79.4711 31.5734 79.5214 31.8262 79.6218 32.0042C79.7222 32.1829 79.8818 32.2718 80.1007 32.2718C80.3159 32.2718 80.4748 32.1829 80.5772 32.0042C80.6793 31.8262 80.7304 31.5734 80.7304 31.2453C80.7266 30.9209 80.6749 30.6683 80.5745 30.4886C80.4738 30.3086 80.3159 30.2184 80.1007 30.2184ZM80.1007 29.8869C80.4162 29.8869 80.6728 30.0036 80.8701 30.2375C81.0675 30.4706 81.1678 30.8069 81.1716 31.2453C81.1716 31.6874 81.0723 32.0233 80.8729 32.2534C80.6739 32.4828 80.4162 32.5995 80.1007 32.6033C79.7811 32.6033 79.5231 32.4876 79.3255 32.2558C79.1281 32.0243 79.0295 31.6874 79.0295 31.2453C79.0295 30.8069 79.1281 30.4716 79.3255 30.2402C79.5231 30.0084 79.7811 29.8906 80.1007 29.8869Z" fill="white" fill-opacity="0.5"/>
<path d="M82.3018 31.3575V32.1972H82.8074C82.9585 32.1972 83.075 32.1604 83.1575 32.0872C83.2398 32.014 83.2812 31.9119 83.2812 31.7799C83.2812 31.6444 83.2418 31.5409 83.163 31.4698C83.0839 31.3983 82.9654 31.3612 82.8074 31.3575H82.3018ZM82.3018 30.2935V31.0256H82.7999C82.9222 31.0256 83.0209 30.9913 83.0949 30.9218C83.1688 30.8521 83.2062 30.7585 83.2062 30.6407C83.2062 30.5304 83.1678 30.4457 83.0921 30.3868C83.0164 30.3279 82.9136 30.2969 82.7835 30.2935H82.3018ZM81.9575 29.9617H82.8105C83.0733 29.9654 83.2692 30.0226 83.3991 30.1329C83.5285 30.2432 83.5933 30.4076 83.5933 30.6247C83.5899 30.7605 83.5559 30.8745 83.4922 30.9671C83.4285 31.06 83.3422 31.1274 83.2329 31.1703C83.3799 31.2094 83.4926 31.2843 83.5717 31.3946C83.6505 31.5052 83.6902 31.6373 83.6902 31.7904C83.6868 32.0185 83.6084 32.1985 83.4563 32.3306C83.3038 32.4626 83.0962 32.5283 82.8348 32.5283H81.9572C81.9322 32.5283 81.915 32.5242 81.9061 32.515C81.8972 32.5062 81.8928 32.4892 81.8928 32.4643V30.026C81.8928 30.0046 81.8972 29.9893 81.9061 29.9804C81.915 29.9719 81.9322 29.9654 81.9575 29.9617Z" fill="white" fill-opacity="0.5"/>
<path d="M85.6604 31.9403V31.2504H85.5795C85.2924 31.2541 85.0664 31.3051 84.9016 31.4032C84.7361 31.5012 84.6556 31.6445 84.6594 31.8334C84.6594 31.9688 84.695 32.0757 84.7666 32.1543C84.8385 32.2326 84.9321 32.2718 85.0468 32.2718C85.1328 32.2718 85.2287 32.2442 85.3346 32.1887C85.4404 32.1336 85.5381 32.0614 85.6278 31.9722L85.6604 31.9403ZM85.6604 30.9192V30.7265C85.6566 30.5519 85.6172 30.4277 85.5418 30.3549C85.4665 30.282 85.3551 30.2453 85.2082 30.2453C85.115 30.2453 85.0136 30.2585 84.9043 30.2851C84.7943 30.3123 84.6967 30.345 84.6107 30.3841C84.5751 30.4022 84.5532 30.4117 84.5463 30.4134C84.5388 30.4155 84.5337 30.4165 84.5302 30.4165C84.5193 30.4199 84.5093 30.4192 84.5004 30.4134C84.4912 30.4083 84.4871 30.4001 84.4871 30.3896L84.4062 30.1758C84.3953 30.151 84.3973 30.1285 84.4117 30.1088C84.4257 30.0894 84.4621 30.0673 84.5193 30.0421C84.6375 29.9958 84.7587 29.9584 84.8824 29.9298C85.0061 29.9012 85.1311 29.8869 85.2565 29.8869C85.522 29.8869 85.7237 29.9502 85.8618 30.0768C86.0002 30.2034 86.0694 30.3841 86.0694 30.6197V31.8334C86.0694 31.8977 86.0749 31.9671 86.0855 32.042C86.0961 32.1166 86.1122 32.1754 86.1338 32.2183C86.141 32.2398 86.1516 32.2667 86.166 32.2983C86.1804 32.3306 86.1948 32.3541 86.2092 32.3681C86.2198 32.3858 86.227 32.4001 86.2308 32.411C86.2308 32.4181 86.228 32.4242 86.2225 32.4293C86.2174 32.4348 86.2092 32.4409 86.1986 32.4484L85.9725 32.5873C85.9437 32.6016 85.9194 32.6016 85.8998 32.5873C85.88 32.573 85.8577 32.5444 85.8327 32.5018C85.8073 32.4627 85.7895 32.4304 85.7786 32.4055C85.7679 32.3807 85.7515 32.3323 85.7303 32.2612L85.7248 32.2449L85.7035 32.2667C85.5706 32.3984 85.4469 32.4875 85.3322 32.5338C85.2171 32.5801 85.0986 32.6033 84.9766 32.6033C84.7543 32.5995 84.5768 32.5321 84.4439 32.4001C84.311 32.2684 84.2466 32.0849 84.25 31.8494C84.25 31.6247 84.3165 31.4403 84.449 31.296C84.582 31.1517 84.7687 31.0509 85.0088 30.9937C85.0914 30.976 85.1893 30.959 85.3024 30.943C85.4154 30.927 85.5059 30.9192 85.5744 30.9192H85.6604Z" fill="white" fill-opacity="0.5"/>
<path d="M88.1787 31.1009V30.2936H87.8073C87.6244 30.2936 87.4908 30.328 87.4065 30.3974C87.3222 30.4672 87.2801 30.5625 87.2801 30.6837C87.2801 30.8157 87.326 30.9182 87.4171 30.9913C87.509 31.0642 87.6388 31.1009 87.8073 31.1009H88.1787ZM87.8022 29.9618H88.5233C88.5449 29.9618 88.56 29.9672 88.5692 29.9778C88.5778 29.9887 88.5843 30.0047 88.5877 30.0261V32.4644C88.5877 32.4892 88.5826 32.5063 88.572 32.5151C88.561 32.5243 88.5449 32.5284 88.5233 32.5284H88.2434C88.2181 32.5284 88.2013 32.5243 88.1924 32.5151C88.1835 32.5063 88.1787 32.4892 88.1787 32.4644V31.4324H87.8882C87.7734 31.4359 87.6926 31.4593 87.646 31.5019C87.5994 31.5448 87.5634 31.6162 87.5384 31.716L87.4524 32.026C87.3949 32.2258 87.3449 32.3555 87.3017 32.4161C87.2585 32.477 87.1996 32.5216 87.1239 32.5498C87.0811 32.5641 87.0324 32.5757 86.9786 32.5846C86.9249 32.5937 86.8639 32.5995 86.7957 32.6033C86.7669 32.6033 86.7481 32.5989 86.7392 32.59C86.7303 32.5812 86.7238 32.5713 86.7203 32.5607L86.6505 32.3201C86.6433 32.2983 86.6415 32.2827 86.6453 32.2718C86.6484 32.2612 86.672 32.2524 86.7152 32.2449L86.7796 32.2343C86.8156 32.2309 86.8461 32.2248 86.8711 32.2156C86.8961 32.2068 86.9177 32.1952 86.9355 32.1809C86.9499 32.1703 86.9653 32.1499 86.9814 32.1193C86.9975 32.089 87.0108 32.0597 87.0218 32.0311L87.1458 31.6302C87.1671 31.5519 87.2003 31.4869 87.2452 31.4348C87.2897 31.3834 87.3428 31.3433 87.4038 31.3147V31.2987C87.2352 31.2701 87.104 31.1979 87.0108 31.0819C86.9177 30.9662 86.8711 30.83 86.8711 30.6731C86.8711 30.4628 86.9482 30.2916 87.1027 30.1595C87.2568 30.0281 87.4898 29.9618 87.8022 29.9618Z" fill="white" fill-opacity="0.5"/>
<path d="M91.1389 30.2935V32.4643C91.1389 32.4892 91.1334 32.5062 91.1228 32.515C91.1118 32.5242 91.0957 32.5283 91.0741 32.5283H90.7942C90.7692 32.5283 90.7521 32.5242 90.7432 32.515C90.7343 32.5062 90.7295 32.4892 90.7295 32.4643V30.026C90.7295 30.0046 90.7343 29.9893 90.7432 29.9804C90.7521 29.9719 90.7692 29.9654 90.7942 29.9617H92.4681C92.4897 29.9617 92.5047 29.9671 92.5136 29.9777C92.5229 29.9886 92.5291 30.0046 92.5325 30.026V32.4643C92.5325 32.4892 92.5273 32.5062 92.5164 32.515C92.5058 32.5242 92.4897 32.5283 92.4681 32.5283H92.1882C92.1632 32.5283 92.145 32.5242 92.1344 32.515C92.1238 32.5062 92.12 32.4892 92.1238 32.4643V30.2935H91.1389Z" fill="white" fill-opacity="0.5"/>
<path d="M94.3251 30.2184C94.1062 30.2184 93.9462 30.3086 93.8459 30.4886C93.7455 30.6683 93.6955 30.9209 93.6955 31.2453C93.6955 31.5734 93.7455 31.8262 93.8459 32.0042C93.9462 32.1829 94.1062 32.2718 94.3251 32.2718C94.5399 32.2718 94.6989 32.1829 94.8013 32.0042C94.9034 31.8262 94.9544 31.5734 94.9544 31.2453C94.951 30.9209 94.8989 30.6683 94.7986 30.4886C94.6979 30.3086 94.5399 30.2184 94.3251 30.2184ZM94.3251 29.8869C94.6403 29.8869 94.8969 30.0036 95.0946 30.2375C95.2919 30.4706 95.3923 30.8069 95.396 31.2453C95.396 31.6874 95.2963 32.0233 95.097 32.2534C94.8979 32.4828 94.6403 32.5995 94.3251 32.6033C94.0055 32.6033 93.7472 32.4876 93.5499 32.2558C93.3526 32.0243 93.2539 31.6874 93.2539 31.2453C93.2539 30.8069 93.3526 30.4716 93.5499 30.2402C93.7472 30.0084 94.0055 29.8906 94.3251 29.8869Z" fill="white" fill-opacity="0.5"/>
<path d="M97.4624 30.2936H96.7358V30.6462C96.732 30.9562 96.7094 31.2381 96.6683 31.4909C96.6272 31.7445 96.56 31.9797 96.4669 32.1972H97.4624V30.2936ZM96.4343 29.9617H97.7957C97.8211 29.9617 97.8389 29.9672 97.8498 29.9777C97.8608 29.9886 97.8676 30.0084 97.8714 30.0366V32.1972H98.1191C98.1403 32.2003 98.1575 32.205 98.1701 32.2105C98.1825 32.2156 98.1907 32.2343 98.1941 32.2666V33.2503C98.1941 33.2717 98.189 33.2877 98.1784 33.2986C98.1674 33.3091 98.1513 33.3146 98.1297 33.3146H97.8498C97.8245 33.3108 97.807 33.3047 97.7957 33.2959C97.7851 33.287 97.7813 33.2717 97.7851 33.2503V32.5284H96.2192V33.2503C96.2192 33.2717 96.2137 33.2877 96.2031 33.2986C96.1921 33.3091 96.176 33.3146 96.1544 33.3146H95.8745C95.8495 33.3108 95.8317 33.3047 95.8208 33.2959C95.8101 33.287 95.8064 33.2717 95.8101 33.2503V32.2666C95.8064 32.2343 95.8119 32.2156 95.8262 32.2105C95.8403 32.205 95.8602 32.2003 95.8852 32.1972H96.0469C96.1654 31.9579 96.2469 31.7112 96.2918 31.4562C96.3367 31.2016 96.3589 30.8068 96.3589 30.2718V30.0366C96.3552 30.0046 96.36 29.9852 96.3723 29.9777C96.385 29.9709 96.4055 29.9655 96.4343 29.9617Z" fill="white" fill-opacity="0.5"/>
<path d="M100.126 30.2936H99.3997V30.6462C99.396 30.9562 99.3737 31.2381 99.3326 31.4909C99.2915 31.7445 99.224 31.9797 99.1308 32.1972H100.126V30.2936ZM99.0983 29.9617H100.46C100.485 29.9617 100.503 29.9672 100.514 29.9777C100.525 29.9886 100.532 30.0084 100.535 30.0366V32.1972H100.783C100.805 32.2003 100.821 32.205 100.834 32.2105C100.847 32.2156 100.855 32.2343 100.858 32.2666V33.2503C100.858 33.2717 100.853 33.2877 100.842 33.2986C100.832 33.3091 100.815 33.3146 100.794 33.3146H100.514C100.489 33.3108 100.471 33.3047 100.46 33.2959C100.449 33.287 100.446 33.2717 100.449 33.2503V32.5284H98.8831V33.2503C98.8831 33.2717 98.878 33.2877 98.867 33.2986C98.8561 33.3091 98.84 33.3146 98.8187 33.3146H98.5385C98.5135 33.3108 98.4957 33.3047 98.4847 33.2959C98.4741 33.287 98.4703 33.2717 98.4741 33.2503V32.2666C98.4703 32.2343 98.4761 32.2156 98.4905 32.2105C98.5046 32.205 98.5241 32.2003 98.5494 32.1972H98.7108C98.8293 31.9579 98.9109 31.7112 98.9557 31.4562C99.0006 31.2016 99.0229 30.8068 99.0229 30.2718V30.0366C99.0195 30.0046 99.0239 29.9852 99.0362 29.9777C99.0493 29.9709 99.0695 29.9655 99.0983 29.9617Z" fill="white" fill-opacity="0.5"/>
<path d="M101.671 30.9992H102.834C102.834 30.9209 102.826 30.8412 102.809 30.7613C102.793 30.6813 102.773 30.6091 102.747 30.5448C102.701 30.4413 102.637 30.362 102.557 30.3069C102.476 30.2517 102.38 30.2221 102.269 30.2184C102.086 30.2184 101.941 30.2888 101.835 30.4297C101.73 30.5707 101.675 30.7606 101.671 30.9992ZM103.108 32.0577L103.205 32.2983C103.205 32.3058 103.206 32.3119 103.208 32.3174C103.209 32.3228 103.211 32.3269 103.211 32.3306C103.207 32.3487 103.19 32.3674 103.159 32.3868C103.129 32.4065 103.079 32.4321 103.011 32.4644C102.911 32.5073 102.809 32.54 102.707 32.5635C102.605 32.5863 102.504 32.5995 102.403 32.6033C102.048 32.6033 101.763 32.4865 101.55 32.2534C101.337 32.0196 101.23 31.6836 101.23 31.2453C101.226 30.8246 101.326 30.4931 101.529 30.2507C101.731 30.0084 101.991 29.8869 102.306 29.8869C102.611 29.8906 102.848 30.0002 103.017 30.2157C103.186 30.4315 103.272 30.764 103.275 31.2133V31.2398C103.272 31.2718 103.266 31.2949 103.259 31.3092C103.252 31.3235 103.237 31.3307 103.216 31.3307H101.671V31.3576C101.671 31.6213 101.738 31.8351 101.873 31.9991C102.007 32.1632 102.188 32.2449 102.414 32.2449C102.504 32.2449 102.595 32.2309 102.688 32.2023C102.782 32.1737 102.888 32.1257 103.006 32.0577C103.024 32.0509 103.036 32.0454 103.044 32.042C103.051 32.0383 103.06 32.0349 103.071 32.0311C103.074 32.0311 103.078 32.0311 103.081 32.0311C103.085 32.0349 103.09 32.0383 103.095 32.042C103.1 32.0454 103.104 32.0509 103.108 32.0577Z" fill="white" fill-opacity="0.5"/>
<path d="M104.405 30.5073V32.0685C104.494 32.1219 104.591 32.1648 104.693 32.1971C104.795 32.2288 104.888 32.2448 104.97 32.2448C105.16 32.2448 105.299 32.1754 105.387 32.0365C105.475 31.8976 105.519 31.6247 105.519 31.2186C105.516 30.8476 105.471 30.5927 105.385 30.4538C105.299 30.3146 105.166 30.2452 104.986 30.2452C104.907 30.2489 104.818 30.2717 104.72 30.3146C104.621 30.3575 104.516 30.4218 104.405 30.5073ZM103.996 33.5923V30.6567C103.992 30.5427 103.981 30.4494 103.961 30.3762C103.941 30.303 103.912 30.2309 103.872 30.1594C103.847 30.1203 103.834 30.0992 103.834 30.0954C103.834 30.092 103.834 30.0883 103.834 30.0849C103.834 30.0815 103.835 30.0767 103.837 30.0713C103.839 30.0662 103.847 30.058 103.861 30.0471L104.093 29.9028C104.111 29.8922 104.127 29.8878 104.141 29.8895C104.156 29.8912 104.17 29.8997 104.184 29.9137C104.213 29.9494 104.241 29.993 104.268 30.0444C104.295 30.0965 104.315 30.1489 104.33 30.2023L104.373 30.1706C104.505 30.074 104.628 30.0029 104.741 29.9566C104.855 29.9103 104.967 29.8868 105.078 29.8868C105.354 29.8905 105.57 30.0073 105.726 30.2374C105.882 30.4671 105.96 30.7976 105.96 31.2292C105.957 31.6713 105.873 32.0106 105.708 32.2475C105.542 32.4847 105.304 32.6032 104.992 32.6032C104.884 32.6032 104.78 32.5872 104.679 32.5549C104.579 32.5232 104.488 32.4786 104.405 32.4214V33.5123C104.402 33.5266 104.396 33.5398 104.389 33.5524C104.382 33.5647 104.373 33.5729 104.362 33.5763L104.104 33.6406C104.057 33.6511 104.027 33.6522 104.012 33.6433C103.998 33.6341 103.992 33.6171 103.996 33.5923Z" fill="white" fill-opacity="0.5"/>
<path d="M107.785 31.0315V30.0213C107.782 30.0033 107.783 29.989 107.79 29.9784C107.798 29.9675 107.808 29.9604 107.823 29.957L107.936 29.9298L108.113 29.8869C108.12 29.8869 108.128 29.8862 108.135 29.8845C108.142 29.8828 108.149 29.8818 108.157 29.8818C108.167 29.8818 108.175 29.8862 108.181 29.895C108.186 29.9039 108.19 29.9155 108.194 29.9298V31.0315H108.377C108.47 31.0315 108.542 31.009 108.592 30.9645C108.643 30.9199 108.682 30.846 108.711 30.7425L108.781 30.4645C108.82 30.3076 108.868 30.1901 108.923 30.1119C108.979 30.0332 109.051 29.976 109.141 29.9407C109.173 29.9298 109.217 29.9182 109.273 29.9056C109.329 29.8933 109.374 29.8869 109.41 29.8869C109.432 29.8869 109.448 29.8906 109.459 29.8978C109.47 29.9049 109.477 29.9155 109.48 29.9298L109.54 30.1707C109.543 30.1918 109.54 30.2072 109.531 30.2157C109.522 30.2249 109.502 30.231 109.47 30.2347L109.394 30.2453C109.347 30.2524 109.311 30.2633 109.284 30.2773C109.257 30.2916 109.236 30.3113 109.222 30.3361C109.211 30.3542 109.199 30.3801 109.187 30.4134C109.174 30.4478 109.161 30.4893 109.147 30.5393L109.087 30.7531C109.051 30.8783 109.005 30.9733 108.947 31.0393C108.89 31.1054 108.818 31.1506 108.732 31.1758C108.818 31.2007 108.891 31.2415 108.95 31.2987C109.009 31.3559 109.055 31.429 109.087 31.5179L109.254 32.0311C109.261 32.0631 109.273 32.0938 109.289 32.122C109.305 32.1506 109.322 32.1703 109.341 32.1809C109.355 32.1952 109.374 32.2068 109.4 32.2156C109.425 32.2248 109.457 32.2309 109.496 32.2343L109.561 32.2449C109.6 32.2524 109.622 32.2612 109.626 32.2718C109.629 32.2827 109.629 32.2983 109.626 32.3201L109.556 32.5607C109.549 32.5713 109.54 32.5812 109.531 32.59C109.522 32.5989 109.505 32.6033 109.48 32.6033C109.408 32.5995 109.346 32.5937 109.292 32.5846C109.238 32.5757 109.192 32.5641 109.152 32.5498C109.08 32.5216 109.022 32.4787 108.977 32.4215C108.932 32.3647 108.881 32.2326 108.824 32.026L108.716 31.6462C108.684 31.5431 108.644 31.4699 108.598 31.427C108.551 31.3841 108.479 31.3627 108.382 31.3627H108.194V32.4855C108.19 32.4998 108.184 32.5107 108.175 32.5178C108.166 32.5246 108.153 32.5284 108.135 32.5284H107.844C107.823 32.5284 107.807 32.5246 107.799 32.5178C107.789 32.5107 107.785 32.4998 107.785 32.4855V31.3627H107.597C107.496 31.3664 107.422 31.3889 107.376 31.4297C107.329 31.4706 107.292 31.5431 107.263 31.6462L107.155 32.026C107.094 32.2326 107.042 32.3647 106.997 32.4215C106.951 32.4787 106.895 32.5216 106.827 32.5498C106.784 32.5641 106.735 32.5767 106.682 32.5873C106.628 32.5978 106.567 32.6033 106.499 32.6033C106.47 32.5995 106.451 32.5944 106.442 32.5873C106.433 32.5801 106.427 32.5713 106.423 32.5607L106.353 32.3201C106.346 32.2983 106.344 32.2827 106.348 32.2718C106.352 32.2612 106.375 32.2524 106.418 32.2449L106.482 32.2343C106.518 32.2309 106.549 32.2248 106.574 32.2156C106.599 32.2068 106.621 32.1952 106.639 32.1809C106.653 32.1703 106.668 32.1506 106.685 32.122C106.701 32.0938 106.714 32.0631 106.725 32.0311L106.892 31.5179C106.92 31.429 106.964 31.3559 107.023 31.2987C107.083 31.2415 107.157 31.2007 107.247 31.1758C107.157 31.1506 107.084 31.1054 107.026 31.0393C106.969 30.9733 106.924 30.8783 106.892 30.7531L106.832 30.5393C106.814 30.4893 106.799 30.4478 106.787 30.4134C106.774 30.3801 106.764 30.3542 106.757 30.3361C106.739 30.3113 106.716 30.2916 106.69 30.2773C106.663 30.2633 106.628 30.2524 106.585 30.2453L106.51 30.2347C106.473 30.231 106.451 30.2249 106.442 30.2157C106.433 30.2072 106.432 30.1918 106.44 30.1707L106.499 29.9298C106.499 29.9155 106.504 29.9049 106.515 29.8978C106.526 29.8906 106.544 29.8869 106.569 29.8869C106.601 29.8869 106.645 29.8933 106.701 29.9056C106.756 29.9182 106.802 29.9298 106.838 29.9407C106.924 29.976 106.995 30.0332 107.05 30.1119C107.106 30.1901 107.155 30.3076 107.198 30.4645L107.268 30.7425C107.293 30.846 107.331 30.9199 107.381 30.9645C107.431 31.009 107.505 31.0315 107.602 31.0315H107.785Z" fill="white" fill-opacity="0.5"/>
<path d="M110.61 31.3627V32.4855C110.607 32.4998 110.6 32.5107 110.592 32.5178C110.583 32.5246 110.569 32.5284 110.551 32.5284H110.26C110.239 32.5284 110.224 32.5246 110.214 32.5178C110.206 32.5107 110.201 32.4998 110.201 32.4855V30.0261C110.201 30.0084 110.204 29.9941 110.209 29.9832C110.214 29.9723 110.225 29.9655 110.239 29.9618L110.347 29.9352L110.53 29.8923C110.533 29.8923 110.538 29.8923 110.546 29.8923C110.553 29.8923 110.56 29.8906 110.567 29.8869H110.572C110.583 29.8906 110.592 29.8961 110.597 29.9029C110.602 29.9104 110.607 29.9189 110.61 29.9298C110.61 29.9332 110.61 29.9342 110.61 29.9325C110.61 29.9304 110.61 29.9315 110.61 29.9352V31.0315H110.842C110.935 31.0315 111.007 31.009 111.057 30.9645C111.107 30.9199 111.147 30.846 111.175 30.7425L111.245 30.4645C111.285 30.3076 111.332 30.1901 111.388 30.1119C111.444 30.0332 111.516 29.9761 111.606 29.9407C111.638 29.9298 111.682 29.9182 111.738 29.9056C111.793 29.8933 111.839 29.8869 111.875 29.8869C111.897 29.8869 111.913 29.8906 111.924 29.8978C111.934 29.9049 111.941 29.9155 111.945 29.9298L112.004 30.1707C112.008 30.1918 112.005 30.2072 111.996 30.2157C111.987 30.2249 111.967 30.231 111.934 30.2347L111.859 30.2453C111.812 30.2524 111.776 30.2633 111.751 30.2773C111.726 30.2916 111.706 30.3096 111.692 30.3307C111.678 30.3487 111.664 30.3746 111.652 30.4083C111.639 30.442 111.626 30.4859 111.611 30.5394L111.552 30.7531C111.516 30.8783 111.469 30.9733 111.412 31.0393C111.354 31.1054 111.283 31.1506 111.197 31.1758C111.283 31.2007 111.356 31.2415 111.415 31.2987C111.474 31.3559 111.52 31.429 111.552 31.5179L111.719 32.0311C111.726 32.0631 111.738 32.0938 111.754 32.122C111.77 32.1506 111.787 32.1703 111.805 32.1809C111.819 32.1952 111.839 32.2068 111.864 32.2156C111.889 32.2248 111.922 32.2309 111.961 32.2343L112.026 32.2449C112.065 32.2524 112.087 32.2612 112.09 32.2718C112.094 32.2827 112.094 32.2983 112.09 32.3201L112.02 32.5607C112.013 32.5713 112.005 32.5812 111.996 32.59C111.987 32.5989 111.97 32.6033 111.945 32.6033C111.873 32.6033 111.81 32.5978 111.756 32.5873C111.703 32.5767 111.656 32.5641 111.617 32.5498C111.545 32.5216 111.486 32.4787 111.442 32.4215C111.397 32.3647 111.346 32.2326 111.288 32.026L111.181 31.6462C111.149 31.5431 111.109 31.4699 111.062 31.427C111.016 31.3841 110.944 31.3627 110.847 31.3627H110.61Z" fill="white" fill-opacity="0.5"/>
<path d="M113.899 31.9403V31.2504H113.818C113.531 31.2541 113.305 31.3051 113.14 31.4032C112.975 31.5012 112.894 31.6445 112.898 31.8334C112.898 31.9688 112.934 32.0757 113.005 32.1543C113.077 32.2326 113.171 32.2718 113.285 32.2718C113.371 32.2718 113.467 32.2442 113.573 32.1887C113.679 32.1336 113.777 32.0614 113.867 31.9722L113.899 31.9403ZM113.899 30.9192V30.7265C113.895 30.5519 113.856 30.4277 113.781 30.3549C113.705 30.282 113.594 30.2453 113.447 30.2453C113.353 30.2453 113.252 30.2585 113.143 30.2851C113.033 30.3123 112.936 30.345 112.85 30.3841C112.814 30.4022 112.792 30.4117 112.785 30.4134C112.778 30.4155 112.772 30.4165 112.769 30.4165C112.758 30.4199 112.748 30.4192 112.739 30.4134C112.73 30.4083 112.726 30.4001 112.726 30.3896L112.645 30.1758C112.634 30.151 112.636 30.1285 112.651 30.1088C112.665 30.0894 112.701 30.0673 112.758 30.0421C112.876 29.9958 112.997 29.9584 113.121 29.9298C113.245 29.9012 113.37 29.8869 113.495 29.8869C113.761 29.8869 113.963 29.9502 114.101 30.0768C114.239 30.2034 114.308 30.3841 114.308 30.6197V31.8334C114.308 31.8977 114.313 31.9671 114.324 32.042C114.335 32.1166 114.351 32.1754 114.373 32.2183C114.38 32.2398 114.39 32.2667 114.405 32.2983C114.419 32.3306 114.434 32.3541 114.448 32.3681C114.459 32.3858 114.466 32.4001 114.469 32.411C114.469 32.4181 114.466 32.4242 114.461 32.4293C114.456 32.4348 114.448 32.4409 114.437 32.4484L114.211 32.5873C114.182 32.6016 114.158 32.6016 114.138 32.5873C114.119 32.573 114.096 32.5444 114.071 32.5018C114.046 32.4627 114.028 32.4304 114.017 32.4055C114.007 32.3807 113.99 32.3323 113.969 32.2612L113.964 32.2449L113.942 32.2667C113.809 32.3984 113.685 32.4875 113.571 32.5338C113.456 32.5801 113.337 32.6033 113.215 32.6033C112.993 32.5995 112.815 32.5321 112.682 32.4001C112.55 32.2684 112.485 32.0849 112.489 31.8494C112.489 31.6247 112.555 31.4403 112.688 31.296C112.821 31.1517 113.007 31.0509 113.248 30.9937C113.33 30.976 113.428 30.959 113.541 30.943C113.654 30.927 113.745 30.9192 113.813 30.9192H113.899Z" fill="white" fill-opacity="0.5"/>
<path d="M26.9987 15.8676L27.6544 15.4579L27.5759 15.8676H26.9987Z" fill="#6ECFE6"/>
<path d="M26.6681 18.8026L25.137 19.601L26.604 16.2357L27.3665 17.3572L26.806 18.5929L26.6681 18.8026Z" fill="#00ACCF"/>
<path d="M18.8154 21.4002L23.2288 20.168L21.15 22.0809L18.8154 21.4002Z" fill="#0E87B8"/>
<path d="M18.4542 21.2549L17.7558 19.5353L23.0088 19.9831L18.4542 21.2549Z" fill="#00ACCF"/>
<path d="M11.1374 22.8873L10.8392 22.6158L11.1542 22.4606L12.822 23.2456L11.9193 23.7048L11.1428 22.8861L11.1374 22.8873Z" fill="#1766B5"/>
<path d="M6.87048 19.3261L9.81782 22.0079L8.29001 21.7774L6.87048 19.3261Z" fill="#1766B5"/>
<path d="M16.6245 0.687695L17.0225 0.616846L16.4682 0.927734L16.6245 0.687695Z" fill="#47B8EC"/>
<path d="M25.4027 9.09529L26.8742 12.6044L21.1903 8.98558L23.5534 7.16268V7.26528L23.6809 7.10297L25.3712 9.0569L25.3695 9.06188L25.4027 9.09529Z" fill="#C4ECFB"/>
<path d="M15.0904 23.5506L15.1114 23.5828L14.4822 23.8179L14.6265 22.7634L14.6478 22.5829L15.9187 21.9362L16.2181 22.4066L15.2303 23.5312L15.0904 23.5506Z" fill="#1766B5"/>
<path d="M10.2411 22.0717L7.14215 19.2522L11.9826 21.7793L11.1332 22.2061L10.2411 22.0717Z" fill="#1766B5"/>
<path d="M10.7612 22.3897L10.6506 22.4445L10.5568 22.3589L10.7612 22.3897Z" fill="#14599D"/>
<path d="M10.4215 22.557L9.422 23.0492L8.34009 22.7198L8.33551 22.0241L10.1334 22.2952L10.4215 22.557Z" fill="#1766B5"/>
<path d="M2.43976 16.1161L2.72559 14.0787L2.83971 13.8948L5.98939 18.3695L4.05141 17.3008L2.43976 16.1161Z" fill="#0799E0"/>
<path d="M14.2449 23.7935L13.5932 23.3565L13.5635 23.1345L14.3924 22.7127L14.3899 22.7336L14.2449 23.7935Z" fill="#1766B5"/>
<path d="M13.5302 22.8851L13.413 22.0065L14.4668 22.0826L14.4258 22.4295L13.5302 22.8851Z" fill="#1766B5"/>
<path d="M2.95864 8.78063L6.10424 8.18256L2.91254 13.3257L2.95864 8.78063Z" fill="#47B8EC"/>
<path d="M8.72636 3.26577L8.61484 4.0354L6.60474 4.46619L8.52344 2.65371L8.72636 3.26577Z" fill="#59C8DA"/>
<path d="M8.85091 4.21259L12.3385 2.02431L14.1748 12.5605L6.52496 7.95578L8.83712 4.23013L8.85399 4.22658L8.85091 4.21259Z" fill="#96DDF8"/>
<path d="M14.2116 13.0368L14.0364 19.7832L6.68091 18.6479L14.2116 13.0368Z" fill="#47B8EC"/>
<path d="M6.5022 18.4851V8.219L14.1244 12.8072L6.5022 18.4851Z" fill="#C4ECFB"/>
<path d="M14.2751 19.7825L14.4437 13.2849L17.3944 19.3078L14.2751 19.7825Z" fill="#59C8DA"/>
<path d="M6.26366 8.37686V18.3458L2.97601 13.6752L6.26366 8.37686Z" fill="#47B8EC"/>
<path d="M13.8989 20.0017L12.2214 21.6365L7.07281 18.9485L13.8989 20.0017Z" fill="#0B8ED8"/>
<path d="M13.7904 20.4374L13.2015 21.7521L12.5032 21.6867L13.7904 20.4374Z" fill="#1766B5"/>
<path d="M14.7074 22.0781L15.2739 21.9983L14.6813 22.2994L14.7074 22.0781Z" fill="#1766B5"/>
<path d="M15.8919 21.6714L14.5956 21.8544L13.4535 21.7719L14.2347 20.0282L17.3218 19.5588L15.8919 21.6714Z" fill="#0B8ED8"/>
<path d="M14.493 12.8439L20.8047 9.23368L17.5509 19.0861L14.493 12.8439Z" fill="#96DDF8"/>
<path d="M18.2428 4.0892L20.9898 3.94205L20.9036 8.55676L18.2428 4.0892Z" fill="#66CEF5"/>
<path d="M21.1508 8.10461L21.2276 3.99485L22.5189 4.54364L21.1508 8.10461Z" fill="#96DDF8"/>
<path d="M22.6745 4.80172L23.528 6.88242L21.1797 8.69348L22.6745 4.80172Z" fill="#C4ECFB"/>
<path d="M18.3444 3.84607L20.0721 2.12577L20.9186 3.70863L18.3444 3.84607Z" fill="#66CEF5"/>
<path d="M16.3226 1.36776L18.5747 1.17654L17.9844 3.69751L16.3226 1.36776Z" fill="#0799E0"/>
<path d="M17.7154 3.72949L12.8862 1.8791L16.0503 1.39548L17.7154 3.72949Z" fill="#66CEF5"/>
<path d="M17.9589 4.0771L20.787 8.8264L20.8185 8.9527L14.4257 12.6104L12.579 2.01535L17.9589 4.0771Z" fill="#C4ECFB"/>
<path d="M12.1456 1.86512L8.8728 3.91882L8.96121 3.30748L10.69 1.4033L12.1456 1.86512Z" fill="#59C8DA"/>
<path d="M8.71667 2.4785L9.15902 2.1124L8.85651 2.90076L8.71667 2.4785Z" fill="#59C8DA"/>
<path d="M6.26785 4.45886L5.71295 2.85941L6.72026 2.31678L8.31475 2.52435L6.26785 4.45886Z" fill="#59C8DA"/>
<path d="M6.37173 4.75828L8.51384 4.2993L6.33596 7.80908L4.64502 6.31697L6.23104 4.81894L6.43591 4.9431L6.37173 4.75828Z" fill="#47B8EC"/>
<path d="M6.12261 7.93783L3.03778 8.52429L4.48741 6.49524L6.12261 7.93783Z" fill="#47B8EC"/>
<path d="M2.6748 13.2554L2.28546 12.3853L2.70982 9.79961L2.6748 13.2554Z" fill="#0799E0"/>
<path d="M2.55566 13.5729L2.49613 13.997L1.85004 15.0382L2.21533 12.812L2.55566 13.5729Z" fill="#0799E0"/>
<path d="M12.2798 21.8957L13.1697 21.9855L13.3049 22.9997L13.0897 23.1094L11.4242 22.3255L12.2798 21.8957Z" fill="#1766B5"/>
<path d="M13.3453 23.4918L13.2766 23.8043L12.3729 23.7401L13.0939 23.3733L13.3453 23.4918Z" fill="#1766B5"/>
<path d="M13.5608 23.6209L13.9005 23.8484L13.5168 23.8211L13.5608 23.6209Z" fill="#1766B5"/>
<path d="M14.0616 24.0975L13.2946 24.8325L13.4653 24.0553L14.0616 24.0975Z" fill="#1766B5"/>
<path d="M14.2179 24.2771V25.3759L13.3273 25.1301L14.2179 24.2771Z" fill="#1766B5"/>
<path d="M16.3282 22.6295L16.6461 23.3368L15.588 23.4821L16.3282 22.6295Z" fill="#1766B5"/>
<path d="M16.4037 22.2568L16.1585 21.8704L17.6458 21.6348L16.4037 22.2568Z" fill="#1766B5"/>
<path d="M16.2131 21.6217L17.5459 19.6521L18.2169 21.3042L16.2131 21.6217Z" fill="#0E87B8"/>
<path d="M20.9602 9.52212L23.5168 19.7889L17.7282 19.2954L20.9602 9.52212Z" fill="#59C8DA"/>
<path d="M21.1644 9.35576L26.4352 15.9884L23.7273 19.6472L21.1644 9.35576Z" fill="#6ECFE6"/>
<path d="M26.5136 15.705L21.6106 9.53463L26.9997 12.9658L26.5136 15.705Z" fill="#96DDF8"/>
<path d="M23.5534 6.31628L22.891 4.70167L23.5534 4.98317V6.31628Z" fill="#C4ECFB"/>
<path d="M21.408 3.81409L22.9205 3.13616L22.593 4.31738L21.408 3.81409Z" fill="#96DDF8"/>
<path d="M21.0445 3.43921L20.4227 2.27647L21.1436 2.74043L21.0445 3.43921Z" fill="#96DDF8"/>
<path d="M18.2512 3.60364L18.8056 1.23574L19.9132 1.9485L18.2512 3.60364Z" fill="#66CEF5"/>
<path d="M16.6407 1.10278L17.6875 0.516318L18.3711 0.956109L16.6407 1.10278Z" fill="#0799E0"/>
<path d="M12.8184 1.64966L14.2413 0.430759L15.7284 1.20489L12.8184 1.64966Z" fill="#66CEF5"/>
<path d="M12.498 1.61108L12.1293 2.18153e-05L14.1256 0.217077L12.498 1.61108Z" fill="#66CEF5"/>
<path d="M12.2631 1.65369L10.8691 1.21153L11.9094 0.108024L12.2631 1.65369Z" fill="#59C8DA"/>
<path d="M9.18634 2.70581L9.52415 1.82386L10.2316 1.55444L9.18634 2.70581Z" fill="#59C8DA"/>
<path d="M9.32503 1.67434L8.54244 2.31506L6.94244 2.10678L9.63704 0.469655L9.32503 1.67434Z" fill="#59C8DA"/>
<path d="M5.99448 4.39819L5.34094 4.00224L5.57691 3.19493L5.99448 4.39819Z" fill="#0E87B8"/>
<path d="M4.55296 6.08008L4.35748 4.78938H5.91856L4.55296 6.08008Z" fill="#00ACCF"/>
<path d="M2.81139 8.43347L2.05872 6.08571L4.25888 6.40915L2.81139 8.43347Z" fill="#0799E0"/>
<path d="M2.10866 11.9902L1.51306 10.6585L2.57019 9.17876L2.10866 11.9902Z" fill="#0799E0"/>
<path d="M2.03857 12.4167L1.6906 14.5367L1.52728 11.2741L2.03857 12.4167Z" fill="#0799E0"/>
<path d="M1.7782 15.6055L2.41423 14.5804L2.22138 15.9554L1.81425 15.6559L1.7782 15.6055Z" fill="#0B8ED8"/>
<path d="M2.40239 16.3827L3.68955 17.3284L3.08593 17.4379L2.39093 16.464L2.40239 16.3827Z" fill="#0799E0"/>
<path d="M3.13754 17.6691L3.95981 17.52L5.92267 18.6036H2.99146L3.13754 17.6691Z" fill="#0B8ED8"/>
<path d="M3.12744 18.8406H6.31385L8.02451 21.7942L6.16963 22.0658L3.12744 18.8406Z" fill="#0B8ED8"/>
<path d="M8.26379 22.9444L9.22895 23.2382L7.81622 23.4984L8.26379 22.9444Z" fill="#1766B5"/>
<path d="M10.61 22.7286L10.8436 22.9411L9.78198 23.1368L10.61 22.7286Z" fill="#1766B5"/>
<path d="M13.2251 24.0383L13.039 24.8851L12.1641 23.9629L13.2251 24.0383Z" fill="#1766B5"/>
<path d="M13.6422 30.5969L13.4562 31.2037L13.1365 30.7853L13.6422 30.5969Z" fill="#1766B5"/>
<path d="M13.7145 30.3169L13.0922 30.5488L13.9345 27.8608L13.7145 30.3169Z" fill="#1766B5"/>
<path d="M13.0899 29.7588L13.2029 25.5208L14.0074 26.8314L13.0899 29.7588Z" fill="#1766B5"/>
<path d="M13.0549 31.0706L13.3548 31.4632L13.0322 31.9241L13.0549 31.0706Z" fill="#1766B5"/>
<path d="M13.5065 31.6618L13.9226 32.207L13.0892 32.2579L13.5065 31.6618Z" fill="#1766B5"/>
<path d="M15.6533 32.381L14.4262 32.2267L15.7776 31.0244L15.6533 32.381Z" fill="#1766B5"/>
<path d="M16.0003 31.2093L16.4144 32.1611L15.8965 32.3412L16.0003 31.2093Z" fill="#1766B5"/>
<path d="M14.169 32.1376L13.6341 31.4369L13.9104 30.5348L15.6579 30.813L14.169 32.1376Z" fill="#1766B5"/>
<path d="M14.0117 29.673L14.2431 27.0902L14.866 27.6961L14.0117 29.673Z" fill="#1766B5"/>
<path d="M15.0486 27.8738L15.676 28.484L14.1663 29.9156L15.0486 27.8738Z" fill="#1766B5"/>
<path d="M14.3458 26.8589L15.4929 26.2452L14.9668 27.4626L14.3458 26.8589Z" fill="#1766B5"/>
<path d="M14.2938 26.6174L14.4448 25.7703L14.5469 25.7127L15.4955 25.9746L14.2938 26.6174Z" fill="#1766B5"/>
<path d="M14.2179 25.6846L14.0749 26.4862L13.4067 25.3981L14.2179 25.622V25.6846Z" fill="#1766B5"/>
<path d="M14.4564 25.442V24.1826L15.7431 24.7646L14.5153 25.4581L14.4564 25.442Z" fill="#1766B5"/>
<path d="M14.6481 24.0089L15.2427 23.7871L15.6876 24.479L14.6481 24.0089Z" fill="#1766B5"/>
<path d="M15.4918 23.7346L16.6985 23.569L16.0099 24.54L15.4918 23.7346Z" fill="#1766B5"/>
<path d="M16.8899 23.2987L16.515 22.4663L18.0115 21.7168L16.8899 23.2987Z" fill="#1766B5"/>
<path d="M23.9741 19.7138L26.0554 16.9013L24.8152 19.7434H24.7966L24.7957 19.7479L23.994 19.787L24.1164 19.674L23.9741 19.7138Z" fill="#00ACCF"/>
<path d="M26.749 15.7434L27.1609 13.4227L27.6825 15.1605L26.749 15.7434Z" fill="#00ACCF"/>
<path d="M27.1346 12.6099L25.8508 9.54839L27.6805 11.3978L27.1346 12.6099Z" fill="#96DDF8"/>
<path d="M27.5403 10.9182L25.6373 8.99413L26.205 7.03759L27.5403 10.9182Z" fill="#96DDF8"/>
<path d="M25.4499 8.78516L23.8568 6.9516L25.3533 6.08552L26.0595 6.68383L25.4499 8.78516Z" fill="#96DDF8"/>
<path d="M25.161 5.92219L23.7919 6.68115V5.09663L25.161 5.92219Z" fill="#C4ECFB"/>
<path d="M22.9023 4.44857L23.5534 3.93699V4.72534L22.9023 4.44857Z" fill="#96DDF8"/>
<path d="M23.5083 3.67042L22.8829 4.16187L23.1525 3.1913L23.5083 3.67042Z" fill="#96DDF8"/>
<path d="M21.2598 3.62048L21.3754 2.80488L22.6771 2.98544L21.2598 3.62048Z" fill="#96DDF8"/>
<path d="M16.0923 1.06885L15.5043 0.378355L16.3672 0.646354L16.0923 1.06885Z" fill="#47B8EC"/>
<path d="M15.62 0.880981L14.4028 0.247362L15.1497 0.328636L15.62 0.880981Z" fill="#47B8EC"/>
<path d="M10.6173 1.13174L10.6159 1.13127L10.5836 1.16681L9.60577 1.53931L9.92198 0.320408L11.6489 0.0377212L10.6173 1.13174Z" fill="#59C8DA"/>
<path d="M5.20208 4.19551L5.79077 4.55237H4.6319L5.20208 4.19551Z" fill="#00ACCF"/>
<path d="M4.12638 4.85617L4.32686 6.17957L2.25555 5.87508L4.12638 4.85617Z" fill="#00ACCF"/>
<path d="M1.94505 6.5118L2.63856 8.67544L1.54407 10.2059L1.94505 6.5118Z" fill="#0799E0"/>
<path d="M1.29717 11.4459L1.49263 15.3538L0.505188 14.5818L1.29717 11.4459Z" fill="#0799E0"/>
<path d="M2.34293 16.8064L2.90733 17.5971L2.77205 18.4636L2.19611 17.853L2.34293 16.8064Z" fill="#0799E0"/>
<path d="M8.09704 22.0232L8.1019 22.766L7.51524 23.4926L6.3681 22.2763L8.09704 22.0232Z" fill="#0B8ED8"/>
<path d="M11.1864 32.3739L12.8184 30.9927L12.7843 32.2765L11.1864 32.3739Z" fill="#1766B5"/>
<path d="M16.6601 32.1289L16.0118 30.8263L18.0116 32.381L16.6601 32.1289Z" fill="#1766B5"/>
<path d="M15.7999 30.5955L14.0828 30.3225L15.7375 28.7534L15.7999 30.5955Z" fill="#1766B5"/>
<path d="M15.7185 28.1937L15.1495 27.6402L15.6597 26.4594L15.7185 28.1937Z" fill="#1766B5"/>
<path d="M15.671 25.7772L14.8394 25.5474L15.8435 24.9801L15.671 25.7772Z" fill="#1766B5"/>
<path d="M19.754 22.8617L18.7228 21.62L20.8527 22.2413L19.754 22.8617Z" fill="#1766B5"/>
<path d="M22.71 21.9281L21.5272 22.057L23.3977 20.3353L22.8448 21.8807L22.71 21.9281Z" fill="#1766B5"/>
<path d="M24.4649 21.3085L23.1345 21.7782L23.7583 20.0356L24.7449 19.9878L24.4649 21.3085Z" fill="#0E87B8"/>
<path d="M26.0495 19.7434H25.359L26.4029 19.206L26.0495 19.7434Z" fill="#00ACCF"/>
<path d="M27.0674 16.4492L26.8177 16.1044H27.4395L27.0674 16.4492Z" fill="#6ECFE6"/>
<path d="M20.0788 23.2987L19.9132 23.0828L21.1798 22.3589L22.7305 22.149L22.5386 22.7127L20.0788 23.2987Z" fill="#1766B5"/>
</svg>
